PathFileType	4	(X/Y/Z)	T1_P2_NoVision_Movement_2_0-733.trc
DataRate	CameraRate	NumFrames	NumMarkers	Units	OrigDataRate	OrigDataStartFrame	OrigNumFrames
60	60	7	27	m	60	366	733
Frame#	Time	RHip			RKnee			RAnkle			RBigToe			RSmallToe			RHeel			LHip			LKnee			LAnkle			LBigToe			LSmallToe			LHeel			Neck			Head			Nose			RShoulder			RElbow			RWrist			RThumb			RIndex			RPinky			LShoulder			LElbow			LWrist			LThumb			LIndex			LPinky		
		X1	Y1	Z1	X2	Y2	Z2	X3	Y3	Z3	X4	Y4	Z4	X5	Y5	Z5	X6	Y6	Z6	X7	Y7	Z7	X8	Y8	Z8	X9	Y9	Z9	X10	Y10	Z10	X11	Y11	Z11	X12	Y12	Z12	X13	Y13	Z13	X14	Y14	Z14	X15	Y15	Z15	X16	Y16	Z16	X17	Y17	Z17	X18	Y18	Z18	X19	Y19	Z19	X20	Y20	Z20	X21	Y21	Z21	X22	Y22	Z22	X23	Y23	Z23	X24	Y24	Z24	X25	Y25	Z25	X26	Y26	Z26	X27	Y27	Z27
367	6.116666666666666	463.9586452200787	3662.8814843442096	557.2702998204215	887.7320874342006	3728.035383415913	590.5409172082994	1229.7928429796007	3696.314153241281	612.7059907532514	1324.632907149406	3620.5924550077575	608.170500698231	1292.4502003861376	3622.267457735127	537.9722791213675	1259.5785946675835	3688.5503083838485	625.608175478589	464.0356196903834	3534.9898140636806	744.976000369961	866.4852194317186	3554.852124664401	743.032439691412	1203.0537441748056	3589.590651191241	731.3103854614376	1308.226976857302	3556.6212254835937	680.6964933978534	1268.0306208230318	3465.3232856168534	704.4957615977266	1244.355259411689	3613.4393482628593	726.0540094759475	-126.9159755602825	3569.0838174230216	660.7584513898069	-379.34833978641353	3508.000676401075	630.673429252354	-235.83672363307892	3469.814175023167	605.8166242870486	-48.4624670575406	3732.966585943447	563.4120245085388	198.85107954759374	3810.070184118202	523.0012863698639	429.62265485887986	3689.933123884901	424.38009802083684	546.6953109685687	3601.7155875996323	435.11655874772634	563.8343602412394	3612.7364770617523	417.1857157741247	560.1213726324293	3682.20701753917	412.5815822603619	-29.915190395770782	3571.2934971027526	850.8570191741999	231.35169380755394	3474.054957336879	858.1096132282086	475.1183888802101	3447.6245437508396	844.1446036511417	585.8463030562639	3457.5811517371917	820.7834363121962	602.4267482822332	3441.334640472164	830.3605767489382	610.5834470419904	3490.2500524415905	899.8548604745006
368	6.133333333333334	466.45616040734103	3667.841996427182	561.655475184157	888.8175932354058	3730.109245261917	592.0423266788771	1229.7093985912995	3700.285001208267	613.8236807779814	1323.485757418157	3619.1991638226136	606.8338195593908	1290.896186118027	3619.778650390213	536.2871020263634	1258.8523715718354	3691.074524688179	625.2559417511987	464.38080130868417	3535.920587357924	745.5925817397041	868.8507792378944	3555.862342485979	743.6334990166383	1205.1898722276237	3590.541147835397	731.2171590623379	1307.8762841154996	3549.717654489253	676.6362207778133	1267.2357063885183	3461.0255685800125	702.6300389577738	1246.5981034729778	3616.2530635325297	727.5696755465265	-126.86542146564426	3569.139781000821	660.7874988030932	-378.89296789315637	3507.929025571756	631.1208984037249	-235.7286224182564	3469.561114003195	605.6512262312946	-48.54445800074892	3725.016452891117	562.0329108442253	198.89176726401087	3810.1997188737378	523.1058550784331	428.51209882527985	3691.4211654753863	424.9996194860831	546.7094656060334	3605.0430620809066	433.2484100140944	563.9801512969764	3620.143444198418	419.1327258474763	560.2914831027015	3683.0844850048843	413.09216666775376	-30.745433436270442	3571.1346260314745	850.7970450519196	230.71945723922602	3474.7747961501454	858.5982322004686	475.1040649280794	3447.5143131824516	844.0646111505434	585.819005257151	3457.499951124712	820.7840264807037	602.4235239309909	3441.0777669732734	830.2770887354361	610.6961647002448	3490.764416287897	900.1805552583484
369	6.15	467.57199919774257	3672.3642420715228	565.5921706038845	888.5458272998518	3730.6749617577316	592.3989077550478	1231.1569574299292	3703.6945409813834	614.7000133067626	1324.6651815100852	3620.8613080641894	607.9066019296422	1292.4976148593912	3621.3553742938143	537.4488126156347	1258.5533450782534	3692.54997229499	625.2947449229822	464.311749550641	3539.114821567596	747.9896583466293	869.9097827115611	3555.977852931622	743.8326164597249	1206.4409755745048	3591.4543586635855	730.3139464683907	1308.814400541951	3547.5872393315167	676.0355813838825	1267.650474938141	3460.66176990475	703.3753426116015	1247.7578741578818	3618.2316411374372	728.648061835384	-126.84766466478531	3569.6519029053898	660.9750997257144	-378.73990035462145	3508.08726256459	630.7630260957034	-235.6800831723416	3469.209551255705	605.3788989637759	-48.606984489792886	3718.5677219623785	561.7878185261661	198.80600831964196	3809.8620241784765	522.876315182266	427.05791351887706	3693.211523287852	425.78826655124215	547.2342656259128	3608.502405506825	434.59927290490896	565.4859158221847	3623.0473619235217	419.9083704285175	561.3043822200636	3685.239732741995	414.4114038214043	-31.77289694104441	3571.602810230762	851.0995918954463	229.75818484307354	3475.2092588686455	858.8970568199824	475.19376153766524	3447.7188618146984	844.3324986940004	585.4379030552072	3457.1344312123165	820.607791347505	602.4748751166619	3440.7174878037295	830.1742675428711	610.8856887669325	3491.3450953781767	900.4770274135683
370	6.166666666666667	467.74688382096997	3675.9100720474307	568.4989013309656	888.5123385181178	3729.8984680325366	591.9403490593595	1233.4285853645438	3705.0762897598156	614.8329410095031	1326.84472128464	3623.8750646304293	610.0814503538992	1296.38100784894	3625.594321015037	540.245556418091	1258.7723086785845	3692.230492235979	625.125504939865	464.76052485217264	3543.954998128541	752.2788375024455	869.8911291499246	3555.2184560882342	743.4675234548536	1206.3331908728187	3591.61981157211	728.9597748961726	1311.2637081945177	3552.860759949692	679.6457911352368	1268.4515929577522	3462.758673000385	705.4387735231826	1247.434560871651	3618.3592221012077	728.7011586191634	-126.87208571785744	3571.931232739472	661.6685929321021	-378.7587528278491	3508.412214303741	630.0328626503823	-235.70881079268779	3469.218515317589	605.4210114876109	-48.64553969203038	3715.4788774351664	562.7532838362105	198.69036527531722	3809.683841422391	522.7643904086275	426.0267869906803	3694.6821038912612	426.4341384518035	547.9670916351664	3611.2950828181292	438.23245763530497	567.3690134216363	3620.4198130748473	419.28068281726655	563.5314295005633	3687.786479697388	415.93672892942675	-33.008986089499885	3572.7500809326402	851.7629897716123	227.93129637792052	3475.3735691172524	859.0034914235634	475.5057573260792	3448.8761587582067	845.5607274847249	584.2987251488097	3456.6118651488	820.2648325805483	602.5338296721858	3440.3679685482293	830.0716883788427	610.9437061116553	3491.111316676947	900.3279975980818
371	6.183333333333334	468.1212619790848	3678.9923558898054	570.8083906351693	888.9906562385538	3728.730055133519	591.3229636266275	1234.9180651040674	3704.8212198056344	614.5012092905945	1328.1466647776533	3625.7956594616144	611.4803169546858	1300.7246130016806	3630.5895770708835	543.5938907543393	1259.2327292008372	3690.9033168229817	624.6901519806142	465.4663294955336	3547.0543076687877	756.38117723851	870.0864270869516	3554.501279671554	742.9033942542337	1205.559758714894	3590.947581832997	727.9152732960101	1314.129930943444	3562.1662155466443	684.5310190155429	1268.795478465678	3464.4713568877505	706.8061144901569	1246.6998340468804	3616.9013634446455	727.8461795659427	-126.91895909543283	3574.9659451184443	662.548327562442	-378.81627097115285	3508.6176959669547	629.6549634658616	-235.80440510386453	3470.709166638588	606.7587635082411	-48.675472674413285	3714.837441926995	563.8978436143068	198.74712535825597	3809.735680283469	522.7933455074295	426.1081096289786	3695.7713085571067	426.8333088903321	548.3033697727299	3611.7547590760296	441.93085186317137	568.5148613197636	3613.7645705385294	417.6968305212382	566.3258791977676	3688.4508497701922	415.8784925323507	-34.02437248493024	3573.8188405444557	852.3543450114789	225.82641558116822	3474.984107497667	858.7280172252985	476.042878105942	3451.1342048875867	847.8876185845705	582.5643666538166	3456.086019842028	819.8057838994911	602.5204352307221	3440.1893228197246	829.9922046868327	610.4985504905901	3488.4291783500585	899.1197457211636
372	6.2	469.55889553791974	3680.5139732479674	571.8733024961546	889.5893022563257	3728.309421302391	591.1493293494108	1234.334936468243	3703.380317640008	614.1036567177362	1327.8379580251728	3626.0697312033208	611.7909382015899	1303.237143647922	3634.0551547608266	546.2657240191671	1259.0991280269527	3689.4182031576693	624.2509552318386	465.4945331614375	3543.920934451626	756.8045004793363	870.518542195937	3554.809375288911	742.7329860841054	1204.7546927668527	3590.2079379882593	727.8900249434778	1315.7544836714433	3569.627136564436	687.7301772277788	1268.25264110205	3464.568069282031	706.7089944882777	1246.2870579392816	3615.469960582829	726.945963110242	-126.95041054658618	3576.8478070433803	663.0698467822192	-378.84035114930043	3508.4913732174364	630.0407812378086	-235.93556453517618	3474.5503800224674	610.1176386120577	-48.69907051284752	3715.051516825237	564.4710175564065	199.3418323630431	3810.0073778757665	522.9185211090298	427.51024829175844	3696.808803910161	427.080371113159	548.0662797768321	3609.2512661597034	443.0499847539228	568.9291109056091	3607.9003851772122	416.1002135096296	568.7438978135112	3687.8770362378536	414.1674510014107	-34.01594373011823	3573.8458993738836	852.3505531122184	224.4285498912688	3474.2283969343234	858.2136501703555	476.6135798471854	3453.659091271332	850.5001198731685	580.7898551518816	3455.657193328496	819.3542113288505	602.4062084918808	3440.1819704716268	829.9420563983745	609.4043924879654	3482.5632944768477	896.8721703030993
373	6.216666666666667	471.1708233956539	3678.904577176231	570.8674061077386	890.0496089929122	3729.361096068602	591.7127330040332	1232.639652993387	3700.985805563779	613.81554099152	1327.0466679402875	3625.946470059831	611.8289039032571	1303.2378175136287	3634.873945217325	547.4229468214647	1258.3015510932105	3688.7692137187632	624.1872456695676	464.52844149987146	3534.4439627518277	752.4221717003296	870.2799995131161	3556.4689857626554	743.2587870058954	1204.1917978101606	3589.9366932165617	729.0824347946973	1315.6886741908486	3572.4754502745936	688.7100423415151	1267.4142103990268	3464.4201052906783	706.4995940035382	1246.4694747683177	3615.294263703124	726.6387388102388	-126.95248847513928	3577.5338753102174	663.243145591666	-378.82410235282873	3508.1905054405297	630.7897076586514	-236.0600055549458	3479.719065430686	614.5479837165676	-48.71140291074051	3715.1739145258425	564.5205545238271	200.58187708371653	3810.462894488259	523.1104470843707	429.83730581715264	3697.5458089563763	427.113600071007	548.3102738519119	3605.768951965208	440.73319011707974	569.3671982461325	3605.1788200017145	414.3367914022932	570.528219965899	3688.865771866684	412.33061523436845	-32.99130598213128	3572.8338183001815	851.7723156090241	223.9385689085911	3474.1274517097354	858.2627512661132	477.1587210474981	3455.956511467344	852.8883388384281	579.4372333636011	3455.2954260605466	818.9986772073003	602.2597074598079	3440.1603006778996	829.8911760595463	608.2907349132952	3476.259075987204	895.3155812982985
